<mxfile host="65bd71144e">
    <diagram id="N5KQSoFaKO_3qXM0kVTW" name="Login">
        <mxGraphModel dx="-3961" dy="516" grid="0" gridSize="10" guides="1" tooltips="1" connect="1" arrows="1" fold="1" page="1" pageScale="1" pageWidth="827" pageHeight="1169" background="#ffffff" math="0" shadow="0">
            <root>
                <mxCell id="0"/>
                <mxCell id="1" parent="0"/>
                <mxCell id="2" value="Criar a View ( tela de login e senha)" style="shape=note;whiteSpace=wrap;html=1;backgroundOutline=1;darkOpacity=0.05;fillColor=#DAE8FC;strokeColor=#82b366;size=0;fontSize=10;fontColor=#0A0A0A;" parent="1" vertex="1">
                    <mxGeometry x="5383" y="18" width="99" height="58" as="geometry"/>
                </mxCell>
                <mxCell id="3" value="Criar a atenticação &lt;br&gt;( regra de negócio)" style="shape=note;whiteSpace=wrap;html=1;backgroundOutline=1;darkOpacity=0.05;fillColor=#f8cecc;strokeColor=#b85450;size=0;fontSize=10;fontColor=#050505;" parent="1" vertex="1">
                    <mxGeometry x="5259" y="15" width="99" height="58" as="geometry"/>
                </mxCell>
                <mxCell id="4" value="Validar senha" style="shape=note;whiteSpace=wrap;html=1;backgroundOutline=1;darkOpacity=0.05;fillColor=#FFFFFF;strokeColor=#666666;size=0;fontSize=10;fontColor=#333333;" parent="1" vertex="1">
                    <mxGeometry x="5321" y="294" width="99" height="58" as="geometry"/>
                </mxCell>
                <mxCell id="5" value="Tratar erros da API" style="shape=note;whiteSpace=wrap;html=1;backgroundOutline=1;darkOpacity=0.05;fillColor=#CDEB8B;strokeColor=#36393d;size=0;fontSize=10;fontColor=#080808;" parent="1" vertex="1">
                    <mxGeometry x="5144" y="18" width="99" height="58" as="geometry"/>
                </mxCell>
                <mxCell id="6" value="Tratar resposta da API" style="shape=note;whiteSpace=wrap;html=1;backgroundOutline=1;darkOpacity=0.05;fillColor=#CDEB8B;strokeColor=#36393d;size=0;fontSize=10;fontColor=#080808;" parent="1" vertex="1">
                    <mxGeometry x="5078" y="87" width="99" height="58" as="geometry"/>
                </mxCell>
                <mxCell id="7" value="Validar email" style="shape=note;whiteSpace=wrap;html=1;backgroundOutline=1;darkOpacity=0.05;fillColor=#FFFFFF;strokeColor=#666666;size=0;fontSize=10;fontColor=#333333;" parent="1" vertex="1">
                    <mxGeometry x="5207" y="290" width="99" height="58" as="geometry"/>
                </mxCell>
                <mxCell id="8" value="Comunicação com API" style="shape=note;whiteSpace=wrap;html=1;backgroundOutline=1;darkOpacity=0.05;fillColor=#B1DDF0;strokeColor=#10739E;size=0;fontSize=10;fontColor=#000000;" parent="1" vertex="1">
                    <mxGeometry x="5093" y="253" width="99" height="58" as="geometry"/>
                </mxCell>
                <mxCell id="9" value="&lt;span style=&quot;color: rgb(0 , 0 , 0)&quot;&gt;Gravar dados no banco&lt;/span&gt;" style="shape=note;whiteSpace=wrap;html=1;backgroundOutline=1;darkOpacity=0.05;fillColor=#B1DDF0;strokeColor=#10739E;size=0;fontSize=10;fontColor=#0A0A0A;" parent="1" vertex="1">
                    <mxGeometry x="5085" y="163" width="99" height="58" as="geometry"/>
                </mxCell>
                <mxCell id="10" value="Controlar o estado" style="shape=note;whiteSpace=wrap;html=1;backgroundOutline=1;darkOpacity=0.05;fillColor=#DAE8FC;strokeColor=#6C8EBF;size=0;fontSize=10;fontColor=#000000;" parent="1" vertex="1">
                    <mxGeometry x="5433" y="87" width="99" height="58" as="geometry"/>
                </mxCell>
                <mxCell id="12" value="&lt;span style=&quot;color: rgb(51 , 51 , 51)&quot;&gt;Criar a rota de navegação&lt;/span&gt;" style="shape=note;whiteSpace=wrap;html=1;backgroundOutline=1;darkOpacity=0.05;fillColor=#DAE8FC;strokeColor=#6C8EBF;size=0;fontSize=10;fontColor=#333333;" parent="1" vertex="1">
                    <mxGeometry x="5433" y="167" width="99" height="58" as="geometry"/>
                </mxCell>
                <mxCell id="13" value="LoginFactories" style="shape=note;whiteSpace=wrap;html=1;backgroundOutline=1;darkOpacity=0.05;fillColor=#f5f5f5;strokeColor=#666666;size=0;fontSize=10;fontColor=#333333;" parent="1" vertex="1">
                    <mxGeometry x="5558" y="218" width="99" height="58" as="geometry"/>
                </mxCell>
                <mxCell id="14" value="Index" style="shape=note;whiteSpace=wrap;html=1;backgroundOutline=1;darkOpacity=0.05;fillColor=#f5f5f5;strokeColor=#666666;size=0;fontSize=10;fontColor=#333333;" parent="1" vertex="1">
                    <mxGeometry x="5558" y="80" width="99" height="58" as="geometry"/>
                </mxCell>
                <mxCell id="15" value="Dependecy Injection" style="shape=note;whiteSpace=wrap;html=1;backgroundOutline=1;darkOpacity=0.05;fillColor=#f5f5f5;strokeColor=#666666;size=0;fontSize=10;fontColor=#333333;" parent="1" vertex="1">
                    <mxGeometry x="5558" y="149" width="99" height="58" as="geometry"/>
                </mxCell>
                <mxCell id="18" style="edgeStyle=none;html=1;strokeWidth=1;strokeColor=#030303;" parent="1" source="17" target="2" edge="1">
                    <mxGeometry relative="1" as="geometry"/>
                </mxCell>
                <mxCell id="19" style="edgeStyle=none;html=1;strokeColor=#030303;strokeWidth=1;" parent="1" source="17" target="3" edge="1">
                    <mxGeometry relative="1" as="geometry"/>
                </mxCell>
                <mxCell id="20" style="edgeStyle=none;html=1;strokeColor=#030303;strokeWidth=1;" parent="1" source="17" target="10" edge="1">
                    <mxGeometry relative="1" as="geometry"/>
                </mxCell>
                <mxCell id="21" style="edgeStyle=none;html=1;entryX=0.5;entryY=1;entryDx=0;entryDy=0;entryPerimeter=0;strokeColor=#030303;strokeWidth=1;" parent="1" source="17" target="5" edge="1">
                    <mxGeometry relative="1" as="geometry"/>
                </mxCell>
                <mxCell id="22" style="edgeStyle=none;html=1;strokeColor=#030303;strokeWidth=1;" parent="1" source="17" target="6" edge="1">
                    <mxGeometry relative="1" as="geometry"/>
                </mxCell>
                <mxCell id="24" style="edgeStyle=none;html=1;strokeColor=#030303;strokeWidth=1;" parent="1" source="17" target="11" edge="1">
                    <mxGeometry relative="1" as="geometry"/>
                </mxCell>
                <mxCell id="25" style="edgeStyle=none;html=1;entryX=0;entryY=0;entryDx=99;entryDy=28.999999999999996;entryPerimeter=0;strokeColor=#030303;strokeWidth=1;" parent="1" source="17" target="9" edge="1">
                    <mxGeometry relative="1" as="geometry"/>
                </mxCell>
                <mxCell id="26" style="edgeStyle=none;html=1;strokeColor=#030303;strokeWidth=1;" parent="1" source="17" target="8" edge="1">
                    <mxGeometry relative="1" as="geometry"/>
                </mxCell>
                <mxCell id="27" style="edgeStyle=none;html=1;strokeColor=#030303;strokeWidth=1;" parent="1" source="17" target="4" edge="1">
                    <mxGeometry relative="1" as="geometry"/>
                </mxCell>
                <mxCell id="28" style="edgeStyle=none;html=1;strokeColor=#030303;strokeWidth=1;" parent="1" source="17" target="7" edge="1">
                    <mxGeometry relative="1" as="geometry"/>
                </mxCell>
                <mxCell id="69" style="edgeStyle=none;html=1;fontColor=#050505;strokeColor=#030303;strokeWidth=1;" parent="1" source="17" target="12" edge="1">
                    <mxGeometry relative="1" as="geometry"/>
                </mxCell>
                <mxCell id="17" value="Login" style="shape=note;whiteSpace=wrap;html=1;backgroundOutline=1;darkOpacity=0.05;fillColor=#FFFFFF;strokeColor=#666666;size=0;fontSize=10;fontColor=#333333;" parent="1" vertex="1">
                    <mxGeometry x="5259" y="167" width="99" height="58" as="geometry"/>
                </mxCell>
                <mxCell id="29" value="" style="shape=note;whiteSpace=wrap;html=1;backgroundOutline=1;darkOpacity=0.05;fillColor=#f8cecc;strokeColor=#b85450;size=0;fontSize=10;fontColor=#050505;" parent="1" vertex="1">
                    <mxGeometry x="5336" y="827" width="418" height="110" as="geometry"/>
                </mxCell>
                <mxCell id="31" value="Resonsabilidades" style="text;html=1;strokeColor=none;fillColor=none;align=left;verticalAlign=middle;whiteSpace=wrap;rounded=0;fontColor=#000000;" parent="1" vertex="1">
                    <mxGeometry x="4973" y="18" width="105" height="30" as="geometry"/>
                </mxCell>
                <mxCell id="32" value="Domain" style="text;html=1;strokeColor=none;fillColor=none;align=center;verticalAlign=middle;whiteSpace=wrap;rounded=0;fontColor=#000000;" parent="1" vertex="1">
                    <mxGeometry x="5679" y="804" width="85" height="30" as="geometry"/>
                </mxCell>
                <mxCell id="33" value="Arquitetura:" style="text;html=1;strokeColor=none;fillColor=none;align=left;verticalAlign=middle;whiteSpace=wrap;rounded=0;fontColor=#000000;" parent="1" vertex="1">
                    <mxGeometry x="4980" y="376" width="105" height="30" as="geometry"/>
                </mxCell>
                <mxCell id="34" value="Autenticacao" style="rounded=1;whiteSpace=wrap;html=1;fillColor=#FFFFFF;strokeColor=#36393d;dashed=1;strokeWidth=2;fontColor=#050505;" parent="1" vertex="1">
                    <mxGeometry x="5550.5" y="852" width="120" height="60" as="geometry"/>
                </mxCell>
                <mxCell id="35" value="" style="shape=note;whiteSpace=wrap;html=1;backgroundOutline=1;darkOpacity=0.05;fillColor=#CDEB8B;strokeColor=#D5E8D4;size=0;fontSize=10;fontColor=#050505;" parent="1" vertex="1">
                    <mxGeometry x="5339" y="678" width="418" height="110" as="geometry"/>
                </mxCell>
                <mxCell id="36" value="Data Layer" style="text;html=1;strokeColor=none;fillColor=none;align=center;verticalAlign=middle;whiteSpace=wrap;rounded=0;fontColor=#000000;" parent="1" vertex="1">
                    <mxGeometry x="5332" y="651" width="85" height="30" as="geometry"/>
                </mxCell>
                <mxCell id="37" value="Regras de negócio" style="text;html=1;strokeColor=none;fillColor=none;align=center;verticalAlign=middle;whiteSpace=wrap;rounded=0;fontColor=#000000;" parent="1" vertex="1">
                    <mxGeometry x="5221" y="861" width="85" height="30" as="geometry"/>
                </mxCell>
                <mxCell id="42" style="edgeStyle=none;html=1;fontColor=#050505;strokeColor=#030303;strokeWidth=1;" parent="1" source="38" target="34" edge="1">
                    <mxGeometry relative="1" as="geometry">
                        <Array as="points">
                            <mxPoint x="5661" y="803"/>
                            <mxPoint x="5611" y="803"/>
                        </Array>
                    </mxGeometry>
                </mxCell>
                <mxCell id="45" style="edgeStyle=none;html=1;entryX=1;entryY=0.5;entryDx=0;entryDy=0;fontColor=#050505;strokeColor=#030303;strokeWidth=1;" parent="1" source="38" target="41" edge="1">
                    <mxGeometry relative="1" as="geometry"/>
                </mxCell>
                <mxCell id="38" value="AutenticacaoRemota" style="rounded=1;whiteSpace=wrap;html=1;fillColor=#FFFFFF;strokeColor=#36393d;strokeWidth=2;fontColor=#050505;arcSize=0;" parent="1" vertex="1">
                    <mxGeometry x="5596" y="708" width="129" height="60" as="geometry"/>
                </mxCell>
                <mxCell id="39" value="Implementaçẽos do caso de uso" style="text;html=1;strokeColor=none;fillColor=none;align=center;verticalAlign=middle;whiteSpace=wrap;rounded=0;fontColor=#000000;" parent="1" vertex="1">
                    <mxGeometry x="5224" y="718" width="85" height="30" as="geometry"/>
                </mxCell>
                <mxCell id="41" value="HttpPostCliente" style="rounded=1;whiteSpace=wrap;html=1;fillColor=#FFFFFF;strokeColor=#36393d;dashed=1;strokeWidth=2;fontColor=#050505;" parent="1" vertex="1">
                    <mxGeometry x="5385" y="708" width="120" height="60" as="geometry"/>
                </mxCell>
                <mxCell id="43" value="" style="shape=note;whiteSpace=wrap;html=1;backgroundOutline=1;darkOpacity=0.05;fillColor=#B1DDF0;strokeColor=#10739E;size=0;fontSize=10;" parent="1" vertex="1">
                    <mxGeometry x="5336" y="537" width="418" height="110" as="geometry"/>
                </mxCell>
                <mxCell id="44" value="Infra" style="text;html=1;strokeColor=none;fillColor=none;align=center;verticalAlign=middle;whiteSpace=wrap;rounded=0;fontColor=#000000;" parent="1" vertex="1">
                    <mxGeometry x="5327" y="507" width="85" height="30" as="geometry"/>
                </mxCell>
                <mxCell id="46" value="Axios" style="rounded=1;whiteSpace=wrap;html=1;fillColor=#FFFFFF;strokeColor=#36393d;strokeWidth=2;fontColor=#050505;" parent="1" vertex="1">
                    <mxGeometry x="5178" y="560" width="139" height="60" as="geometry"/>
                </mxCell>
                <mxCell id="49" style="edgeStyle=none;html=1;fontColor=#050505;strokeColor=#030303;strokeWidth=1;" parent="1" source="47" target="46" edge="1">
                    <mxGeometry relative="1" as="geometry"/>
                </mxCell>
                <mxCell id="50" style="edgeStyle=none;html=1;fontColor=#050505;strokeColor=#030303;strokeWidth=1;entryX=0.5;entryY=0;entryDx=0;entryDy=0;" parent="1" source="47" target="41" edge="1">
                    <mxGeometry relative="1" as="geometry">
                        <Array as="points">
                            <mxPoint x="5536" y="672"/>
                            <mxPoint x="5445" y="672"/>
                        </Array>
                    </mxGeometry>
                </mxCell>
                <mxCell id="47" value="AxiosHttpClient" style="rounded=1;whiteSpace=wrap;html=1;fillColor=#FFFFFF;strokeColor=#36393d;strokeWidth=2;fontColor=#050505;arcSize=0;" parent="1" vertex="1">
                    <mxGeometry x="5471" y="562" width="129" height="60" as="geometry"/>
                </mxCell>
                <mxCell id="48" value="Bibiloteca externa" style="text;html=1;strokeColor=none;fillColor=none;align=center;verticalAlign=middle;whiteSpace=wrap;rounded=0;fontColor=#000000;" parent="1" vertex="1">
                    <mxGeometry x="5188" y="507" width="85" height="30" as="geometry"/>
                </mxCell>
                <mxCell id="51" value="" style="shape=note;whiteSpace=wrap;html=1;backgroundOutline=1;darkOpacity=0.05;fillColor=#DAE8FC;strokeColor=#6C8EBF;size=0;fontSize=10;fontColor=#050505;" parent="1" vertex="1">
                    <mxGeometry x="5786" y="829" width="418" height="110" as="geometry"/>
                </mxCell>
                <mxCell id="52" value="Presentation" style="text;html=1;strokeColor=none;fillColor=none;align=center;verticalAlign=middle;whiteSpace=wrap;rounded=0;fontColor=#000000;" parent="1" vertex="1">
                    <mxGeometry x="6116" y="797" width="85" height="30" as="geometry"/>
                </mxCell>
                <mxCell id="55" style="edgeStyle=none;html=1;fontColor=#050505;strokeColor=#030303;strokeWidth=1;" parent="1" source="54" target="34" edge="1">
                    <mxGeometry relative="1" as="geometry"/>
                </mxCell>
                <mxCell id="62" style="edgeStyle=none;html=1;fontColor=#050505;strokeColor=#030303;strokeWidth=1;" parent="1" source="54" target="61" edge="1">
                    <mxGeometry relative="1" as="geometry"/>
                </mxCell>
                <mxCell id="54" value="Login" style="rounded=1;whiteSpace=wrap;html=1;fillColor=#FFFFFF;strokeColor=#36393d;strokeWidth=2;fontColor=#050505;arcSize=0;" parent="1" vertex="1">
                    <mxGeometry x="5823" y="852" width="129" height="60" as="geometry"/>
                </mxCell>
                <mxCell id="56" value="" style="shape=note;whiteSpace=wrap;html=1;backgroundOutline=1;darkOpacity=0.05;fillColor=#FFFFFF;strokeColor=#666666;size=0;fontSize=10;fontColor=#333333;" parent="1" vertex="1">
                    <mxGeometry x="5783" y="674" width="418" height="110" as="geometry"/>
                </mxCell>
                <mxCell id="57" value="" style="shape=note;whiteSpace=wrap;html=1;backgroundOutline=1;darkOpacity=0.05;fillColor=#f5f5f5;strokeColor=#666666;size=0;fontSize=10;fontColor=#333333;" parent="1" vertex="1">
                    <mxGeometry x="6220" y="511" width="108" height="426" as="geometry"/>
                </mxCell>
                <mxCell id="63" style="edgeStyle=none;html=1;fontColor=#050505;strokeColor=#030303;strokeWidth=1;" parent="1" source="58" target="61" edge="1">
                    <mxGeometry relative="1" as="geometry"/>
                </mxCell>
                <mxCell id="58" value="ValidacaoEmail" style="rounded=1;whiteSpace=wrap;html=1;fillColor=#FFFFFF;strokeColor=#36393d;strokeWidth=2;fontColor=#050505;arcSize=0;" parent="1" vertex="1">
                    <mxGeometry x="6001.5" y="699" width="129" height="60" as="geometry"/>
                </mxCell>
                <mxCell id="59" value="Validation" style="text;html=1;strokeColor=none;fillColor=none;align=center;verticalAlign=middle;whiteSpace=wrap;rounded=0;fontColor=#000000;" parent="1" vertex="1">
                    <mxGeometry x="6106" y="644" width="85" height="30" as="geometry"/>
                </mxCell>
                <mxCell id="64" style="edgeStyle=none;html=1;fontColor=#050505;strokeColor=#030303;strokeWidth=1;entryX=0.25;entryY=0;entryDx=0;entryDy=0;" parent="1" source="60" target="61" edge="1">
                    <mxGeometry relative="1" as="geometry">
                        <Array as="points">
                            <mxPoint x="5899" y="807"/>
                            <mxPoint x="6036" y="807"/>
                        </Array>
                    </mxGeometry>
                </mxCell>
                <mxCell id="60" value="VadidacaoRequiridos" style="rounded=1;whiteSpace=wrap;html=1;fillColor=#FFFFFF;strokeColor=#36393d;strokeWidth=2;fontColor=#050505;arcSize=0;" parent="1" vertex="1">
                    <mxGeometry x="5834" y="699" width="129" height="60" as="geometry"/>
                </mxCell>
                <mxCell id="61" value="Validacao" style="rounded=1;whiteSpace=wrap;html=1;fillColor=#FFFFFF;strokeColor=#36393d;dashed=1;strokeWidth=2;fontColor=#050505;" parent="1" vertex="1">
                    <mxGeometry x="6006" y="852" width="120" height="60" as="geometry"/>
                </mxCell>
                <mxCell id="65" value="Posso trocar o framework?&lt;br&gt;Posso trocar o Axios?" style="text;html=1;strokeColor=none;fillColor=none;align=left;verticalAlign=middle;whiteSpace=wrap;rounded=0;fontColor=#000000;" parent="1" vertex="1">
                    <mxGeometry x="5420" y="437" width="196" height="30" as="geometry"/>
                </mxCell>
                <mxCell id="66" value="Estilos SCSS&amp;nbsp;" style="text;html=1;strokeColor=none;fillColor=none;align=left;verticalAlign=middle;whiteSpace=wrap;rounded=0;fontColor=#000000;" parent="1" vertex="1">
                    <mxGeometry x="5177" y="412" width="196" height="30" as="geometry"/>
                </mxCell>
                <mxCell id="11" value="&lt;span style=&quot;color: rgb(13 , 13 , 13)&quot;&gt;Gravar dados no localstorage?&lt;/span&gt;" style="shape=note;whiteSpace=wrap;html=1;backgroundOutline=1;darkOpacity=0.05;fillColor=#DAE8FC;strokeColor=#6C8EBF;size=0;fontSize=10;fontColor=#0A0A0A;" parent="1" vertex="1">
                    <mxGeometry x="5431" y="236" width="99" height="58" as="geometry"/>
                </mxCell>
                <mxCell id="72" style="edgeStyle=none;html=1;fontColor=#050505;strokeColor=#030303;strokeWidth=1;entryX=0.261;entryY=0.818;entryDx=0;entryDy=0;entryPerimeter=0;" parent="1" target="51" edge="1">
                    <mxGeometry relative="1" as="geometry">
                        <mxPoint x="5895" y="989" as="sourcePoint"/>
                        <mxPoint x="5680.5" y="892" as="targetPoint"/>
                    </mxGeometry>
                </mxCell>
                <mxCell id="73" value="Ponto de entrada da Aplicação&lt;br&gt;Main: preciso de alguém que me forneça os validadores, a autenticação remoto, axiossHttpCliente" style="text;html=1;strokeColor=none;fillColor=none;align=left;verticalAlign=middle;whiteSpace=wrap;rounded=0;fontColor=#000000;" parent="1" vertex="1">
                    <mxGeometry x="5805.5" y="993" width="251.5" height="50" as="geometry"/>
                </mxCell>
                <mxCell id="74" value="LoginFactory" style="rounded=1;whiteSpace=wrap;html=1;fillColor=#FFFFFF;strokeColor=#36393d;strokeWidth=2;fontColor=#050505;arcSize=0;" parent="1" vertex="1">
                    <mxGeometry x="6233.5" y="543" width="81" height="60" as="geometry"/>
                </mxCell>
                <mxCell id="75" value="Index" style="rounded=1;whiteSpace=wrap;html=1;fillColor=#FFFFFF;strokeColor=#36393d;strokeWidth=2;fontColor=#050505;arcSize=0;" parent="1" vertex="1">
                    <mxGeometry x="6233.5" y="622" width="81" height="60" as="geometry"/>
                </mxCell>
                <mxCell id="77" value="DI" style="rounded=1;whiteSpace=wrap;html=1;fillColor=#FFFFFF;strokeColor=#36393d;strokeWidth=2;fontColor=#050505;arcSize=0;" parent="1" vertex="1">
                    <mxGeometry x="6233.5" y="699" width="81" height="60" as="geometry"/>
                </mxCell>
                <mxCell id="78" value="Url e ClienteHttp" style="text;html=1;strokeColor=none;fillColor=none;align=center;verticalAlign=middle;whiteSpace=wrap;rounded=0;fontColor=#000000;" vertex="1" parent="1">
                    <mxGeometry x="5604" y="678" width="107" height="30" as="geometry"/>
                </mxCell>
                <mxCell id="79" value="email e password" style="text;html=1;strokeColor=none;fillColor=none;align=center;verticalAlign=middle;whiteSpace=wrap;rounded=0;fontColor=#000000;" vertex="1" parent="1">
                    <mxGeometry x="5565" y="944" width="85" height="30" as="geometry"/>
                </mxCell>
                <mxCell id="81" value="tokenAcesso" style="text;html=1;strokeColor=none;fillColor=none;align=center;verticalAlign=middle;whiteSpace=wrap;rounded=0;fontColor=#000000;" vertex="1" parent="1">
                    <mxGeometry x="5412" y="944" width="85" height="30" as="geometry"/>
                </mxCell>
                <mxCell id="82" value="ContaModel" style="rounded=1;whiteSpace=wrap;html=1;fillColor=#FFFFFF;strokeColor=#36393d;dashed=1;strokeWidth=2;fontColor=#050505;" vertex="1" parent="1">
                    <mxGeometry x="5383" y="852" width="120" height="60" as="geometry"/>
                </mxCell>
                <mxCell id="83" value="url" style="text;html=1;strokeColor=none;fillColor=none;align=center;verticalAlign=middle;whiteSpace=wrap;rounded=0;fontColor=#000000;" vertex="1" parent="1">
                    <mxGeometry x="5400.5" y="784" width="85" height="30" as="geometry"/>
                </mxCell>
            </root>
        </mxGraphModel>
    </diagram>
</mxfile>